<svg width="48" height="47" viewBox="0 0 48 47" fill="none" xmlns="http://www.w3.org/2000/svg">
<g clip-path="url(#clip0_665_522)">
<path d="M39.4999 0H8.50007C3.80561 0 0 3.80802 0 8.50545V38.3238C0 43.0212 3.80561 46.8293 8.50007 46.8293H39.4999C44.1944 46.8293 48 43.0212 48 38.3238V8.50545C48 3.80802 44.1944 0 39.4999 0Z" fill="#5C68E2"/>
<path d="M23.26 28.1036H15.8214L14.3085 32.8076C14.2885 32.8937 14.2388 32.9701 14.168 33.0232C14.0973 33.0763 14.0101 33.1027 13.9218 33.0977H10.1546C9.93941 33.0977 9.86433 32.9794 9.9294 32.7428L16.3694 14.1805C16.432 13.987 16.4965 13.7679 16.5628 13.5231C16.6464 13.093 16.6894 12.6559 16.6913 12.2177C16.6875 12.1918 16.6888 12.1654 16.6953 12.14C16.7017 12.1146 16.7131 12.0907 16.7288 12.0698C16.7445 12.0488 16.7642 12.0312 16.7868 12.0179C16.8094 12.0046 16.8343 11.9959 16.8603 11.9924C16.8789 11.9895 16.8979 11.9895 16.9166 11.9924H22.0362C22.1863 11.9924 22.2717 12.0459 22.2942 12.1529L29.6033 32.7747C29.6681 32.9888 29.6033 33.0968 29.41 33.0968H25.2243C25.1524 33.1048 25.0801 33.0863 25.0208 33.0448C24.9616 33.0034 24.9195 32.9417 24.9024 32.8714L23.26 28.1036ZM16.9813 24.041H22.0681C21.9398 23.6109 21.7896 23.1276 21.6176 22.5911C21.4455 22.0545 21.2631 21.4798 21.0704 20.8669L20.4904 19.0309C20.2971 18.4186 20.12 17.8276 19.9592 17.2579C19.7984 16.6882 19.6523 16.1685 19.521 15.699H19.489C19.3077 16.569 19.0818 17.4291 18.8124 18.2759C18.5121 19.2432 18.2061 20.2314 17.8945 21.2406C17.5829 22.2499 17.2785 23.1833 16.9813 24.041Z" fill="#002233"/>
<path d="M33.9496 15.4087C33.6212 15.4218 33.2937 15.3654 32.9886 15.2433C32.6834 15.1211 32.4074 14.9359 32.1787 14.6997C31.9505 14.4533 31.7734 14.1641 31.6574 13.8488C31.5414 13.5336 31.4889 13.1985 31.5029 12.8628C31.4918 12.5312 31.5505 12.2009 31.6754 11.8935C31.8002 11.5861 31.9883 11.3084 32.2275 11.0785C32.4643 10.851 32.7438 10.6727 33.0499 10.5537C33.3559 10.4348 33.6824 10.3776 34.0106 10.3855C34.7833 10.3855 35.3896 10.6165 35.8295 11.0785C36.2757 11.5629 36.5119 12.2045 36.4864 12.8628C36.5 13.1998 36.4456 13.5361 36.3266 13.8517C36.2077 14.1673 36.0265 14.4557 35.7938 14.6997C35.5517 14.9385 35.263 15.1247 34.9456 15.2467C34.6283 15.3687 34.2892 15.4239 33.9496 15.4087ZM31.7282 32.7746V17.3733C31.7282 17.1799 31.8136 17.0832 31.9853 17.0832H35.9449C36.1157 17.0832 36.2021 17.1771 36.2021 17.3733V32.7746C36.2021 32.9887 36.1167 33.0967 35.9449 33.0967H32.0182C31.8249 33.0977 31.7282 32.9897 31.7282 32.7746Z" fill="#002233"/>
</g>
<defs>
<clipPath id="clip0_665_522">
<rect width="48" height="46.8293" fill="white"/>
</clipPath>
</defs>
</svg>
