<svg width="428" height="830" viewBox="0 0 428 830" fill="none" xmlns="http://www.w3.org/2000/svg">
<g clip-path="url(#clip0_594_142)">
<g filter="url(#filter0_d_594_142)">
<path fill-rule="evenodd" clip-rule="evenodd" d="M3.43519 2.17579C2.29023 1.45065 1.14512 0.725406 0 0V415V415.403V830.403L3.43581 828.226C38.9256 805.749 74.2653 783.368 104.8 759.064C136.32 733.976 162.56 707.011 179.68 678.68C183.584 672.259 187.013 665.767 190.408 659.34C201.904 637.579 213.009 616.558 240.8 601.539C254.536 594.115 272.373 588.157 290.816 581.997C320.708 572.012 352.193 561.495 370.4 543.341C399.044 514.781 399.023 469.056 399.001 419.171C399.001 417.917 399 416.661 399 415.403M399 415C399 413.741 399.001 412.485 399.001 411.232C399.023 361.347 399.044 315.622 370.4 287.061C352.193 268.907 320.708 258.39 290.816 248.406C272.373 242.245 254.536 236.288 240.8 228.864C213.009 213.844 201.904 192.824 190.408 171.063C187.013 164.635 183.584 158.144 179.68 151.723C162.56 123.392 136.32 96.4266 104.8 71.3386C74.2651 47.0347 38.9252 24.6528 3.43519 2.17579" fill="#5C68E2"/>
</g>
</g>
<defs>
<filter id="filter0_d_594_142" x="0" y="-16" width="439.002" height="870.403" filterUnits="userSpaceOnUse" color-interpolation-filters="sRGB">
<feFlood flood-opacity="0" result="BackgroundImageFix"/>
<feColorMatrix in="SourceAlpha" type="matrix" values="0 0 0 0 0 0 0 0 0 0 0 0 0 0 0 0 0 0 127 0" result="hardAlpha"/>
<feOffset dx="20" dy="4"/>
<feGaussianBlur stdDeviation="10"/>
<feComposite in2="hardAlpha" operator="out"/>
<feColorMatrix type="matrix" values="0 0 0 0 0 0 0 0 0 0 0 0 0 0 0 0 0 0 0.5 0"/>
<feBlend mode="normal" in2="BackgroundImageFix" result="effect1_dropShadow_594_142"/>
<feBlend mode="normal" in="SourceGraphic" in2="effect1_dropShadow_594_142" result="shape"/>
</filter>
<clipPath id="clip0_594_142">
<rect width="428" height="830" fill="white"/>
</clipPath>
</defs>
</svg>
