<svg width="428" height="830" viewBox="0 0 428 830" fill="none" xmlns="http://www.w3.org/2000/svg">
<g clip-path="url(#clip0_594_142)">
<g filter="url(#filter0_d_594_142)">
<path fill-rule="evenodd" clip-rule="evenodd" d="M3.43066 2.1731L0 0V374V415.403V789.403L3.43066 787.229C38.9224 764.751 74.2637 742.369 104.8 718.064C136.32 692.976 162.56 666.011 179.68 637.68C183.583 631.259 187.013 624.768 190.408 618.34C201.904 596.579 213.008 575.558 240.8 560.539C254.536 553.115 272.373 547.157 290.815 540.997C320.708 531.012 352.193 520.495 370.4 502.341C391.72 481.083 397.16 450.316 398.539 415.403H399L399.001 411.232C399.003 405.664 399.006 400.148 398.969 394.701C399.006 389.255 399.003 383.738 399.001 378.17L399 374H398.539C397.16 339.086 391.72 308.319 370.4 287.061C352.193 268.907 320.708 258.39 290.815 248.406C272.373 242.245 254.536 236.288 240.8 228.864C213.008 213.844 201.904 192.823 190.408 171.062C187.013 164.635 183.583 158.143 179.68 151.723C162.56 123.392 136.32 96.4266 104.8 71.3386C74.2637 47.0337 38.9224 24.6511 3.43066 2.1731Z" fill="#5C68E2"/>
</g>
</g>
<defs>
<filter id="filter0_d_594_142" x="0" y="-16" width="439.002" height="829.403" filterUnits="userSpaceOnUse" color-interpolation-filters="sRGB">
<feFlood flood-opacity="0" result="BackgroundImageFix"/>
<feColorMatrix in="SourceAlpha" type="matrix" values="0 0 0 0 0 0 0 0 0 0 0 0 0 0 0 0 0 0 127 0" result="hardAlpha"/>
<feOffset dx="20" dy="4"/>
<feGaussianBlur stdDeviation="10"/>
<feComposite in2="hardAlpha" operator="out"/>
<feColorMatrix type="matrix" values="0 0 0 0 0 0 0 0 0 0 0 0 0 0 0 0 0 0 0.5 0"/>
<feBlend mode="normal" in2="BackgroundImageFix" result="effect1_dropShadow_594_142"/>
<feBlend mode="normal" in="SourceGraphic" in2="effect1_dropShadow_594_142" result="shape"/>
</filter>
<clipPath id="clip0_594_142">
<rect width="428" height="830" fill="white"/>
</clipPath>
</defs>
</svg>
