<svg width="1440" height="1024" viewBox="0 0 1440 1024" fill="none" xmlns="http://www.w3.org/2000/svg">
<g clip-path="url(#clip0_591_119)">
<rect width="1440" height="1024" fill="white"/>
<path d="M1440 0H0V1024H1440V0Z" fill="#002233"/>
<g filter="url(#filter0_d_591_119)">
<path d="M1440 415.403C1393.92 420.352 1347.68 425.301 1319.68 395.093C1291.68 364.885 1281.6 299.52 1260.32 263.68C1239.04 228.011 1206.4 221.696 1178.56 202.581C1150.56 183.467 1127.36 151.381 1106.72 115.541C1086.24 79.5307 1068.48 39.7653 1050.56 0H1440V415.403Z" fill="#5C68E2"/>
</g>
<g filter="url(#filter1_d_591_119)">
<path d="M0 608.597C36.64 631.808 73.28 654.848 104.8 679.936C136.32 705.024 162.56 731.989 179.68 760.32C196.8 788.48 204.8 818.005 240.8 837.461C276.8 856.917 340.96 866.304 370.4 895.659C399.84 925.013 399 972.5 399 1024H0V608.597Z" fill="#5C68E2"/>
</g>
</g>
<defs>
<filter id="filter0_d_591_119" x="1010.56" y="-16" width="429.44" height="459.117" filterUnits="userSpaceOnUse" color-interpolation-filters="sRGB">
<feFlood flood-opacity="0" result="BackgroundImageFix"/>
<feColorMatrix in="SourceAlpha" type="matrix" values="0 0 0 0 0 0 0 0 0 0 0 0 0 0 0 0 0 0 127 0" result="hardAlpha"/>
<feOffset dx="-20" dy="4"/>
<feGaussianBlur stdDeviation="10"/>
<feComposite in2="hardAlpha" operator="out"/>
<feColorMatrix type="matrix" values="0 0 0 0 0 0 0 0 0 0 0 0 0 0 0 0 0 0 0.5 0"/>
<feBlend mode="normal" in2="BackgroundImageFix" result="effect1_dropShadow_591_119"/>
<feBlend mode="normal" in="SourceGraphic" in2="effect1_dropShadow_591_119" result="shape"/>
</filter>
<filter id="filter1_d_591_119" x="0" y="592.597" width="439.002" height="455.403" filterUnits="userSpaceOnUse" color-interpolation-filters="sRGB">
<feFlood flood-opacity="0" result="BackgroundImageFix"/>
<feColorMatrix in="SourceAlpha" type="matrix" values="0 0 0 0 0 0 0 0 0 0 0 0 0 0 0 0 0 0 127 0" result="hardAlpha"/>
<feOffset dx="20" dy="4"/>
<feGaussianBlur stdDeviation="10"/>
<feComposite in2="hardAlpha" operator="out"/>
<feColorMatrix type="matrix" values="0 0 0 0 0 0 0 0 0 0 0 0 0 0 0 0 0 0 0.5 0"/>
<feBlend mode="normal" in2="BackgroundImageFix" result="effect1_dropShadow_591_119"/>
<feBlend mode="normal" in="SourceGraphic" in2="effect1_dropShadow_591_119" result="shape"/>
</filter>
<clipPath id="clip0_591_119">
<rect width="1440" height="1024" fill="white"/>
</clipPath>
</defs>
</svg>
