<svg id="visual" viewBox="0 0 900 600" width="900" height="600" xmlns="http://www.w3.org/2000/svg" xmlns:xlink="http://www.w3.org/1999/xlink" version="1.1"><rect x="0" y="0" width="900" height="600" fill="#002233"></rect><defs><linearGradient id="grad1_0" x1="33.3%" y1="0%" x2="100%" y2="100%"><stop offset="20%" stop-color="#002233" stop-opacity="1"></stop><stop offset="80%" stop-color="#002233" stop-opacity="1"></stop></linearGradient></defs><defs><linearGradient id="grad2_0" x1="0%" y1="0%" x2="66.7%" y2="100%"><stop offset="20%" stop-color="#002233" stop-opacity="1"></stop><stop offset="80%" stop-color="#002233" stop-opacity="1"></stop></linearGradient></defs><g transform="translate(900, 0)"><path d="M0 243.4C-28.8 246.3 -57.7 249.2 -75.2 231.5C-92.7 213.8 -99 175.5 -112.3 154.5C-125.6 133.6 -146 129.9 -163.4 118.7C-180.9 107.5 -195.4 88.7 -208.3 67.7C-221.1 46.6 -232.2 23.3 -243.4 0L0 0Z" fill="#5C68E2"></path></g><g transform="translate(0, 600)"><path d="M0 -243.4C22.9 -229.8 45.8 -216.3 65.5 -201.6C85.2 -186.9 101.6 -171.1 112.3 -154.5C123 -138 128 -120.7 150.5 -109.3C173 -97.9 213.1 -92.4 231.5 -75.2C249.9 -58 246.6 -29 243.4 0L0 0Z" fill="#5C68E2"></path></g></svg>