<svg width="48" height="47" viewBox="0 0 48 47" fill="none" xmlns="http://www.w3.org/2000/svg">
<g clip-path="url(#clip0_779_24)">
<path d="M29.9362 6C33.8948 6 37.4849 7.61637 40.0874 10.2159C42.6859 12.8234 44.289 16.4179 44.289 20.3979C44.289 23.3043 43.4267 26.0179 41.953 28.2792L48.1652 35.0711L43.8813 39L37.8847 32.389C35.6115 33.911 32.8718 34.7959 29.9362 34.7959C26.6674 34.7959 23.6495 33.6947 21.2352 31.8463C19.7301 33.3683 18.2917 34.8155 17.0806 36.0307L8.75981 27.7837L2.9121 33.4823L0 30.5602L8.81076 21.9671C11.5622 24.7279 14.2822 27.4573 17.061 30.2102L18.3505 28.9045C16.6103 26.5213 15.5874 23.5874 15.5874 20.4019C15.5874 16.4297 17.1982 12.8273 19.7889 10.2199C22.3875 7.60458 25.9698 6 29.9362 6ZM20.5532 26.6747L26.2873 20.8659L22.8735 17.4405L32.476 17.354V27.0758L29.1954 23.7841C27.5493 25.4555 25.4759 27.5595 23.383 29.6793C25.2369 31.0361 27.5258 31.8423 29.995 31.8423C33.0952 31.8423 35.9093 30.576 37.9396 28.5349C39.9737 26.4937 41.2358 23.6739 41.2358 20.5631C41.2358 17.4523 39.9737 14.6285 37.9396 12.5913C35.9054 10.5502 33.0952 9.28388 29.995 9.28388C26.8948 9.28388 24.0806 10.5502 22.0504 12.5913C20.0163 14.6325 18.7542 17.4523 18.7542 20.5631C18.7542 22.8127 19.4166 24.9128 20.5532 26.6747Z" fill="#5C68E2"/>
</g>
<defs>
<clipPath id="clip0_779_24">
<rect width="48" height="46.8293" fill="white"/>
</clipPath>
</defs>
</svg>
