<svg width="104" height="123" viewBox="0 0 104 123" fill="none" xmlns="http://www.w3.org/2000/svg">
<g clip-path="url(#clip0_761_7)">
<path d="M1.18 122.01C0.49 121.69 0 121 0 120.18V2C0 0.9 0.89 0 2 0H21.4H101.12C102.22 0 103.12 0.89 103.12 2V109.73C103.12 109.84 103.11 109.94 103.1 110.04C102.82 113.97 101.54 117.03 99.24 119.22C96.94 121.4 93.71 122.62 89.52 122.86C89.43 122.87 89.35 122.88 89.26 122.88H2.83C2.15 122.88 1.54 122.53 1.18 122.01ZM99.13 109.68V3.99H21.4H3.99V118.89H89.25H89.29C92.5 118.71 94.9 117.85 96.49 116.34C98.06 114.85 98.93 112.62 99.13 109.68ZM45.26 38.12L48.74 48.36L50.49 42.28L49.63 41.34C49.24 40.78 49.16 40.28 49.37 39.86C49.83 38.94 50.8 39.11 51.7 39.11C52.64 39.11 53.8 38.93 54.1 40.11C54.2 40.5 54.07 40.92 53.8 41.34L52.94 42.28L54.69 48.36L57.84 38.12C60.12 40.17 66.85 40.58 69.35 41.97C70.14 42.41 70.86 42.97 71.43 43.73C73.21 46.08 73.2 46.5 73.51 49.45C73.38 50.8 72.61 51.58 71.1 51.7H31.99C30.48 51.58 29.71 50.81 29.58 49.45C29.88 46.5 29.88 46.08 31.66 43.73C32.24 42.97 32.95 42.41 33.74 41.97C36.26 40.58 42.99 40.16 45.26 38.12ZM43.39 23.41C43.72 23.54 44.07 23.57 44.42 23.5L43.93 19.57C44.18 18.6 44.57 17.84 45.09 17.29C45.63 16.71 46.3 16.35 47.11 16.2C48.18 16.12 48.5 16.9 49.56 17.58C52.8 19.65 55.55 20.35 59.56 20.4L58.91 23.69C59.08 23.7 59.26 23.7 59.43 23.68C59.48 23.69 59.53 23.69 59.58 23.69C60.32 23.62 60.77 23.7 60.9 23.97C61.07 24.31 60.93 24.98 60.47 26.05L58.27 29.67C57.45 31.02 56.62 32.37 55.57 33.36C54.55 34.32 53.29 34.95 51.57 34.95C49.98 34.95 48.78 34.33 47.79 33.43C46.76 32.49 45.94 31.22 45.16 29.98L43.21 26.88L43.2 26.87C42.59 25.97 42.28 25.18 42.26 24.57C42.25 24.36 42.29 24.17 42.36 24.01C42.43 23.87 42.53 23.75 42.67 23.65C42.84 23.53 43.09 23.45 43.39 23.41ZM60.9 22.84L61.02 17.71C60.87 15.66 60.2 14.11 59.11 12.94C56.46 10.07 51.5 9.33 47.76 10.68C47.13 10.91 46.53 11.2 45.99 11.54C44.45 12.52 43.2 13.95 42.7 15.73C42.58 16.15 42.5 16.57 42.46 16.99C42.38 18.79 42.43 20.94 42.56 22.63C42.4 22.69 42.26 22.77 42.12 22.85C41.83 23.04 41.62 23.3 41.48 23.6C41.35 23.89 41.29 24.22 41.3 24.58C41.32 25.36 41.69 26.32 42.39 27.37L44.34 30.46C45.16 31.76 46.01 33.08 47.13 34.1C48.28 35.15 49.69 35.87 51.55 35.87C53.55 35.88 55.01 35.14 56.2 34.02C57.35 32.94 58.22 31.54 59.07 30.13L61.29 26.48C61.3 26.46 61.31 26.44 61.32 26.43C61.92 25.08 62.05 24.14 61.74 23.53C61.57 23.2 61.29 22.97 60.9 22.84ZM70.47 108.18C69.38 108.18 68.49 107.29 68.49 106.18C68.49 105.08 69.37 104.18 70.47 104.18H87.15C88.24 104.18 89.13 105.07 89.13 106.18C89.13 107.28 88.25 108.18 87.15 108.18H70.47ZM16.82 93.62C15.73 93.62 14.84 92.73 14.84 91.62C14.84 90.52 15.72 89.62 16.82 89.62H87.32C88.41 89.62 89.3 90.51 89.3 91.62C89.3 92.72 88.42 93.62 87.32 93.62H16.82ZM17.14 79.06C16.05 79.06 15.16 78.17 15.16 77.06C15.16 75.96 16.04 75.06 17.14 75.06H87.14C88.23 75.06 89.12 75.95 89.12 77.06C89.12 78.16 88.24 79.06 87.14 79.06H17.14ZM16.82 64.5C15.73 64.5 14.84 63.61 14.84 62.5C14.84 61.4 15.72 60.5 16.82 60.5H46.95C48.04 60.5 48.93 61.39 48.93 62.5C48.93 63.6 48.05 64.5 46.95 64.5H16.82ZM54.64 64.5C53.55 64.5 52.66 63.61 52.66 62.5C52.66 61.4 53.54 60.5 54.64 60.5H87.14C88.23 60.5 89.12 61.39 89.12 62.5C89.12 63.6 88.24 64.5 87.14 64.5H54.64Z" fill="#5C68E2"/>
</g>
<defs>
<clipPath id="clip0_761_7">
<rect width="103.12" height="122.88" fill="white"/>
</clipPath>
</defs>
</svg>
