<svg width="165" height="99" viewBox="0 0 165 99" fill="none" xmlns="http://www.w3.org/2000/svg">
<g clip-path="url(#clip0_758_6)">
<path fill-rule="evenodd" clip-rule="evenodd" d="M82.5 0C60.5054 0 46.7554 11 41.25 33C49.5036 22.0045 59.1268 17.8801 70.1196 20.6267C76.4038 22.1936 80.8618 26.7458 85.8569 31.7843C93.9136 39.9971 103.313 49.4932 123.75 49.4932C145.745 49.4932 159.495 38.4932 165 16.4932C156.755 27.4977 147.132 31.6222 136.13 28.8666C129.846 27.2996 125.388 22.7474 120.393 17.709C112.31 9.45559 102.95 0 82.5 0ZM41.25 49.4932C19.2554 49.4932 5.50537 60.4932 0 82.4932C8.26253 71.4977 17.8857 67.3733 28.8696 70.1199C35.1538 71.6869 39.6118 76.239 44.6069 81.291C52.6636 89.4904 62.063 99 82.5 99C104.495 99 118.245 88 123.75 66C115.505 76.9955 105.882 81.1109 94.8804 78.3463C88.5962 76.7794 84.1382 72.2272 79.1431 67.1887C71.0864 58.9759 61.687 49.4662 41.25 49.4662V49.4932Z" fill="#5C68E2"/>
</g>
<defs>
<clipPath id="clip0_758_6">
<rect width="165" height="99" fill="white"/>
</clipPath>
</defs>
</svg>
