<svg width="48" height="47" viewBox="0 0 48 47" fill="none" xmlns="http://www.w3.org/2000/svg">
<path fill-rule="evenodd" clip-rule="evenodd" d="M4 37.8367C4.73305 28.4275 7.62543 30.306 15.7238 25.283C17.0034 28.5771 20.8831 30.1103 24.4068 29.6667C24.0509 30.4329 23.7873 31.2351 23.6221 32.0568C23.2424 33.9495 23.3763 35.9506 24.0763 37.8367H4ZM34.2314 25.9459C35.3177 25.9454 36.3934 26.1572 37.3969 26.5694C38.4004 26.9815 39.3121 27.5858 40.0797 28.3477C42.2255 30.474 43.023 33.6093 42.1594 36.4883C41.9608 37.1494 41.6784 37.7829 41.3187 38.3735L43.8958 41.2139C43.931 41.2518 43.9582 41.2961 43.976 41.3445C43.9938 41.3928 44.0018 41.4441 43.9996 41.4955C43.9974 41.5469 43.985 41.5974 43.9632 41.6441C43.9413 41.6907 43.9103 41.7327 43.8721 41.7675L41.5204 43.8971C41.4822 43.9319 41.4375 43.9588 41.3888 43.9764C41.34 43.994 41.2883 44.0019 41.2365 43.9996C41.1847 43.9974 41.1339 43.985 41.0869 43.9632C41.0399 43.9415 40.9978 43.9107 40.9628 43.8728L38.5246 41.1525C37.2272 41.9363 35.7509 42.3446 34.2314 42.3446C33.1453 42.3451 32.0696 42.1333 31.0661 41.7213C30.0626 41.3093 29.1509 40.7052 28.3831 39.9436C27.6142 39.1814 27.0043 38.2764 26.5882 37.2805C25.306 34.22 26.0348 30.6765 28.3839 28.3486C29.1516 27.5858 30.0637 26.9808 31.0679 26.5684C32.0433 26.1668 33.1128 25.9459 34.2314 25.9459ZM38.8975 29.5188C37.0145 27.6521 34.1594 27.0901 31.7068 28.0974C27.3043 29.9044 26.2933 35.5314 29.5636 38.7708C31.4501 40.6367 34.2992 41.2004 36.7552 40.1931C37.9619 39.6978 38.9933 38.8586 39.7186 37.7819C40.4439 36.7051 40.8306 35.4392 40.8297 34.1444C40.8297 33.2564 40.6526 32.4113 40.3323 31.6434C39.9989 30.849 39.5114 30.1271 38.8975 29.5188ZM18.1009 24.9109C18.0136 24.7571 18.3755 23.7835 18.4678 23.6297C17.4102 22.6964 16.5738 21.7546 16.3958 19.8174L16.2822 19.819C16.0204 19.8157 15.7678 19.756 15.5314 19.6224C15.1517 19.4091 14.8856 19.0419 14.706 18.6286C14.3246 17.7608 14.0229 15.7614 14.9822 15.1086L14.8017 14.9901L14.7814 14.7381C14.7449 14.2786 14.7356 13.7224 14.7263 13.1394C14.6915 10.9929 14.6475 9.24386 12.9068 8.72132L12.1593 8.49785L12.6517 7.89466C14.0585 6.17077 15.528 4.66363 17.0102 3.50682C18.6873 2.19794 20.3916 1.32676 22.0594 1.07557C23.7738 0.817657 25.4356 1.20746 26.9695 2.43737C27.4221 2.80029 27.8619 3.2363 28.2865 3.74708C29.9229 3.90418 31.2611 4.77873 32.217 6.02544C32.7873 6.7706 33.2204 7.65103 33.4967 8.5869C33.7712 9.51857 33.8907 10.5116 33.8399 11.4886C33.7475 13.2385 33.1018 14.0954 31.8009 15.3421C32.0297 15.3497 32.245 15.4026 32.4357 15.5034C33.1611 15.8882 33.1848 16.7241 32.9941 17.4256C32.806 18.012 32.5662 18.4085 32.3399 18.9789C32.0653 19.7501 31.6636 19.8938 30.8882 19.8106C30.8484 21.7168 29.9594 22.6527 28.7636 23.7725L29.0331 24.7101L29.0229 24.7529C28.7484 24.9025 28.4814 25.0629 28.2229 25.2343C27.6339 25.625 27.0873 26.0702 26.5899 26.5625L26.5814 26.5718C26.3266 26.824 26.0851 27.0889 25.8577 27.3657C23.1305 28.0503 19.4602 27.3136 18.1009 24.9109Z" fill="#5C68E2"/>
</svg>
