<svg width="48" height="47" viewBox="0 0 48 47" fill="none" xmlns="http://www.w3.org/2000/svg">
<path fill-rule="evenodd" clip-rule="evenodd" d="M24 9C17.6016 9 13.6016 12.2222 12 18.6667C14.401 15.4458 17.2005 14.2376 20.3984 15.0422C22.2266 15.5012 23.5234 16.8346 24.9766 18.3105C27.3203 20.7163 30.0547 23.498 36 23.498C42.3984 23.498 46.3984 20.2758 48 13.8314C45.6016 17.0549 42.8021 18.2631 39.6016 17.4559C37.7734 16.9969 36.4766 15.6634 35.0234 14.1875C32.6719 11.7698 29.9492 9 24 9ZM12 23.498C5.60156 23.498 1.60156 26.7202 0 33.1647C2.40365 29.9438 5.20313 28.7356 8.39844 29.5402C10.2266 29.9992 11.5234 31.3326 12.9766 32.8125C15.3203 35.2144 18.0547 38 24 38C30.3984 38 34.3984 34.7778 36 28.3333C33.6016 31.5542 30.8021 32.7598 27.6016 31.9499C25.7734 31.4909 24.4766 30.1575 23.0234 28.6815C20.6797 26.2758 17.9453 23.4901 12 23.4901V23.498Z" fill="#5C68E2"/>
</svg>
