<svg width="48" height="47" viewBox="0 0 48 47" fill="none" xmlns="http://www.w3.org/2000/svg">
<g clip-path="url(#clip0_785_29)">
<path fill-rule="evenodd" clip-rule="evenodd" d="M3.81301 1H44.187C45.7287 1 47 2.26426 47 3.79744V42.2451C47 43.7845 45.735 45.0426 44.187 45.0426H3.81301C2.27039 45.0426 1 43.7783 1 42.2451V3.79744C1 2.258 2.2668 1 3.81301 1ZM40.1746 14.4762L25.2264 20.7626L40.1746 27.0463V14.4762ZM24.0988 21.237L8.91523 27.6217H39.2869L24.0988 21.237ZM7.82543 27.1321L22.9713 20.7626L7.82543 14.3957V27.1321ZM24.0988 20.2882L38.5313 14.2188H9.66094L24.0988 20.2882ZM26.0745 31.3529H40.0712C40.8053 31.3529 41.409 31.9533 41.409 32.6841V38.866C41.409 39.5906 40.7999 40.1964 40.0712 40.1964H26.0745C25.3405 40.1964 24.7367 39.5969 24.7367 38.866V32.6841C24.7367 31.9542 25.3405 31.3529 26.0745 31.3529ZM40.0712 32.5814H26.0745C26.0161 32.5814 25.9712 32.6252 25.9712 32.6841V38.866C25.9712 38.9196 26.0215 38.9688 26.0745 38.9688H40.0712C40.1252 38.9688 40.1746 38.9205 40.1746 38.866V32.6841C40.1746 32.6305 40.1252 32.5814 40.0712 32.5814ZM7.92875 31.3529H21.2193C21.9507 31.3529 22.558 31.9568 22.558 32.6841V38.866C22.558 39.5942 21.9516 40.1964 21.2193 40.1964H7.92875C7.19742 40.1964 6.59098 39.5933 6.59098 38.866V32.6841C6.59098 31.9542 7.19563 31.3529 7.92875 31.3529ZM21.2193 32.5814H7.92875C7.87035 32.5814 7.82543 32.6252 7.82543 32.6841V38.866C7.82543 38.9223 7.87305 38.9688 7.92875 38.9688H21.2193C21.2714 38.9688 21.3227 38.9169 21.3227 38.866V32.6841C21.3227 32.6269 21.2768 32.5814 21.2193 32.5814ZM7.92875 12.9912H40.0712C40.8026 12.9912 41.409 13.5943 41.409 14.3216V27.519C41.409 28.2463 40.8026 28.8494 40.0712 28.8494H7.92875C7.19742 28.8494 6.59098 28.2463 6.59098 27.519V14.3216C6.59098 13.5898 7.19473 12.9912 7.92875 12.9912ZM44.8105 10.368L3.18949 10.3224V42.5953C3.18949 42.7472 3.30809 42.8652 3.45992 42.8652H44.5401C44.6847 42.8652 44.8105 42.7401 44.8105 42.5953V10.368ZM41.8618 4.26205C42.701 4.26205 43.3802 4.9384 43.3802 5.77201C43.3802 6.6065 42.701 7.28286 41.8618 7.28286C41.0227 7.28286 40.3426 6.6065 40.3426 5.77201C40.3426 4.9384 41.0227 4.26205 41.8618 4.26205ZM36.5512 4.26205C37.3903 4.26205 38.0704 4.9384 38.0704 5.77201C38.0704 6.6065 37.3903 7.28286 36.5512 7.28286C35.712 7.28286 35.0328 6.6065 35.0328 5.77201C35.0328 4.9384 35.712 4.26205 36.5512 4.26205ZM31.2414 4.26205C32.0797 4.26205 32.7598 4.9384 32.7598 5.77201C32.7598 6.6065 32.0797 7.28286 31.2414 7.28286C30.4023 7.28286 29.7221 6.6065 29.7221 5.77201C29.7221 4.9384 30.4023 4.26205 31.2414 4.26205Z" fill="#5C68E2"/>
</g>
<defs>
<clipPath id="clip0_785_29">
<rect width="46" height="44.0426" fill="white" transform="translate(1 1)"/>
</clipPath>
</defs>
</svg>
